<svg version="1.1" id="Capa_1" xmlns="http://www.w3.org/2000/svg" xmlns:xlink="http://www.w3.org/1999/xlink" x="0px" y="0px" viewBox="0 0 463.581 463.581" style="enable-background:new 0 0 463.581 463.581;" xml:space="preserve"><g><g><path style="fill: rgb(237, 237, 237);" d="M302.139,16.208L155.28,98.835L0,36.757v337.572l155.979,42.886l144.534-40.204l163.067,70.361 V77.482L302.139,16.208z M351.065,168.7c11.73,0.61,16.452,7.852,19.005,13.241c0.78,1.666,0.073,3.674-1.593,4.463 c-0.471,0.211-0.951,0.325-1.439,0.325c-1.26,0-2.463-0.715-3.04-1.935c-2.991-6.332-6.828-9.063-13.266-9.389 c-1.861-0.098-3.276-1.674-3.195-3.536C347.635,170.042,349.025,168.603,351.065,168.7z M92.089,236.298 c-0.658,0.894-1.683,1.382-2.715,1.382c-0.699,0-1.39-0.203-1.983-0.65c-5.771-4.194-11.152-9.047-15.997-14.453 c-1.244-1.382-1.122-3.503,0.252-4.739c1.374-1.244,3.503-1.13,4.747,0.244c4.511,5.056,9.559,9.6,14.957,13.526 C92.845,232.689,93.186,234.802,92.089,236.298z M127.757,252.595l-0.122-0.008c-6.982-0.382-14.176-2.057-21.338-4.958 c-1.731-0.691-2.552-2.65-1.853-4.365c0.691-1.715,2.658-2.544,4.373-1.853c6.478,2.617,12.924,4.129,19.192,4.479 c1.845,0.098,3.276,1.683,3.154,3.536C131.065,251.205,129.594,252.595,127.757,252.595z M167.944,237.151 c-6.096,5.503-12.128,9.405-18.46,11.892c-0.398,0.171-0.821,0.244-1.236,0.244c-1.333,0-2.593-0.805-3.105-2.122 c-0.691-1.723,0.163-3.682,1.87-4.357c5.641-2.227,10.868-5.617,16.436-10.657c1.357-1.236,3.495-1.13,4.747,0.244 C169.424,233.786,169.318,235.908,167.944,237.151z M196.915,207.238c-4.999,4.178-9.616,9.25-14.298,14.51 c-0.667,0.748-1.593,1.122-2.52,1.122c-0.797,0-1.593-0.268-2.227-0.845c-1.382-1.227-1.52-3.357-0.268-4.739 c4.861-5.471,9.657-10.746,15.022-15.2c1.414-1.179,3.552-1,4.739,0.431C198.54,203.946,198.353,206.059,196.915,207.238z M236.623,196.687c-0.504,1.374-1.78,2.235-3.178,2.235c-0.374,0-0.748-0.065-1.122-0.195c-5.015-1.78-9.722-2.292-15.046-1.553 c-1.089,0.203-2.276,0.48-3.43,0.797c-1.813,0.504-3.65-0.553-4.154-2.333c-0.48-1.78,0.553-3.625,2.341-4.137 c1.349-0.374,2.739-0.691,4.17-0.959c6.934-0.984,12.339-0.285,18.346,1.853C236.314,193.021,237.232,194.939,236.623,196.687z M271.478,219.65c-0.618,1.105-1.756,1.731-2.934,1.731c-0.545,0-1.114-0.146-1.609-0.423c-4.967-2.731-9.649-6.283-14.168-9.706 l-3.341-2.504c-1.479-1.114-1.796-3.219-0.691-4.698c1.13-1.504,3.235-1.788,4.706-0.691l3.365,2.536 c4.568,3.43,8.836,6.674,13.372,9.177C271.795,215.984,272.372,218.025,271.478,219.65z M309.804,217.716 c-1.39,1.049-2.796,1.926-4.202,2.634c-5.723,3.235-11.234,5.129-16.72,5.69c-0.114,0.008-0.219,0.016-0.333,0.016 c-1.723,0-3.17-1.292-3.333-3.016c-0.203-1.853,1.146-3.503,2.999-3.69c4.528-0.471,9.193-2.081,14.241-4.926 c1.219-0.626,2.252-1.292,3.26-2.057c1.479-1.122,3.585-0.845,4.698,0.634C311.552,214.489,311.276,216.594,309.804,217.716z M336.108,184.437c-3.26,3.796-6.413,8.462-9.478,12.973l-2.544,3.723c-0.658,0.935-1.699,1.463-2.772,1.463 c-0.65,0-1.325-0.203-1.91-0.602c-1.512-1.057-1.902-3.146-0.845-4.674l2.512-3.69c3.17-4.666,6.438-9.486,9.909-13.55 c1.219-1.422,3.333-1.585,4.739-0.39C337.116,180.91,337.303,183.031,336.108,184.437z M411.883,219.211 c-0.171,0-0.317-0.008-0.512-0.033c-8.836-1.333-18.541-1.943-28.296-1.861c-0.187,2.495-0.398,5.015-0.528,7.527 c-0.463,8.494-0.943,17.265-3.568,25.719c-0.431,1.447-1.756,2.365-3.203,2.365c-0.317,0-0.658-0.049-0.992-0.163 c-1.764-0.545-2.756-2.43-2.203-4.202c2.357-7.657,2.804-15.639,3.251-24.093c0.154-2.325,0.341-4.65,0.488-6.974 c-11.998,0.528-22.809,2.17-31.246,4.869c-0.358,0.114-0.691,0.171-1.032,0.171c-1.406,0-2.731-0.91-3.178-2.341 c-0.585-1.764,0.382-3.65,2.154-4.227c8.405-2.691,18.866-4.373,30.441-5.048c-1.016-2.016-1.975-4.154-2.869-6.625 c-0.642-1.74,0.252-3.666,2.024-4.284c1.756-0.634,3.658,0.26,4.276,2.016c0.358,0.935,0.715,1.74,1.073,2.585 c0.935-4.585,2.357-9.47,4.885-14.298c0.853-1.65,2.918-2.268,4.536-1.414c1.65,0.87,2.284,2.894,1.422,4.544 c-3.048,5.779-4.357,11.868-5.072,17.143c9.852-0.057,19.696,0.602,28.645,1.951c1.837,0.276,3.105,1.983,2.829,3.82 C414.956,218.025,413.517,219.211,411.883,219.211z" fill="#010002"></path></g></g></svg>